<?xml version="1.0" standalone="no"?>
<!DOCTYPE svg PUBLIC "-//W3C//DTD SVG 20010904//EN"
 "http://www.w3.org/TR/2001/REC-SVG-20010904/DTD/svg10.dtd">
<svg version="1.0" xmlns="http://www.w3.org/2000/svg"
 width="300.000000pt" height="300.000000pt" viewBox="0 0 300.000000 300.000000"
 preserveAspectRatio="xMidYMid meet">
<metadata>
Created by potrace 1.11, written by Peter Selinger 2001-2013
</metadata>
<g transform="translate(0.000000,300.000000) scale(0.100000,-0.100000)"
fill="#000000" stroke="none">
<path d="M0 1500 l0 -1500 1500 0 1500 0 0 1500 0 1500 -1500 0 -1500 0 0
-1500z m924 561 c132 -46 160 -83 154 -197 -4 -94 -16 -107 -66 -76 -20 12
-66 37 -102 55 -58 28 -74 32 -150 32 -100 0 -143 -18 -207 -87 -143 -156
-132 -543 19 -673 102 -87 273 -85 418 4 82 50 90 44 90 -73 0 -89 -15 -113
-96 -151 -112 -53 -264 -68 -397 -40 -235 49 -368 216 -397 495 -24 243 37
459 170 590 106 106 238 153 405 146 66 -3 120 -12 159 -25z m678 -1 c20 -6
47 -23 61 -39 14 -17 79 -182 161 -407 76 -208 141 -384 145 -391 4 -7 68 150
150 370 79 210 153 397 164 416 30 50 68 61 211 61 118 0 127 -1 153 -24 l28
-24 3 -576 c2 -544 1 -577 -15 -584 -33 -13 -189 -8 -206 7 -15 12 -17 60 -17
505 l-1 491 -175 -490 c-125 -351 -181 -495 -196 -508 -19 -16 -36 -18 -111
-15 -75 2 -91 6 -105 24 -10 11 -91 237 -182 501 l-165 482 -5 -492 -5 -491
-25 -14 c-33 -17 -171 -12 -194 7 -15 13 -16 61 -14 583 l3 570 28 24 c26 23
36 24 150 24 67 0 139 -5 159 -10z"/>
</g>
</svg>
