<?xml version="1.0" standalone="no"?>
<!DOCTYPE svg PUBLIC "-//W3C//DTD SVG 20010904//EN"
 "http://www.w3.org/TR/2001/REC-SVG-20010904/DTD/svg10.dtd">
<svg version="1.0" xmlns="http://www.w3.org/2000/svg"
 width="260.000000pt" height="260.000000pt" viewBox="0 0 260.000000 260.000000"
 preserveAspectRatio="xMidYMid meet">
<metadata>
Created by potrace 1.11, written by Peter Selinger 2001-2013
</metadata>
<g transform="translate(0.000000,260.000000) scale(0.100000,-0.100000)"
fill="#000000" stroke="none">
<path d="M1210 2564 c-66 -34 -106 -41 -138 -25 -32 16 -77 26 -99 23 -13 -2
-47 -24 -76 -50 -72 -65 -88 -72 -156 -72 -82 0 -104 -11 -136 -67 -50 -85
-88 -114 -167 -127 -43 -8 -88 -54 -88 -91 0 -29 -34 -93 -64 -118 -11 -11
-40 -30 -64 -44 -54 -32 -62 -48 -62 -121 0 -69 -17 -117 -55 -152 -52 -48
-68 -85 -60 -140 4 -28 11 -52 16 -56 18 -11 9 -79 -16 -119 -13 -22 -25 -48
-25 -57 0 -10 -4 -18 -10 -18 -5 0 -10 -13 -10 -30 0 -16 5 -30 10 -30 6 0 10
-8 10 -18 0 -10 6 -26 14 -37 35 -52 39 -91 15 -165 -25 -80 -22 -93 40 -158
54 -58 71 -96 71 -162 0 -76 12 -105 48 -118 16 -5 54 -34 84 -63 46 -45 56
-61 61 -99 7 -52 51 -100 92 -100 29 0 92 -34 118 -64 11 -11 30 -40 44 -64
32 -53 48 -62 118 -62 68 0 115 -22 180 -85 36 -34 55 -45 79 -45 18 0 36 4
41 9 6 4 29 13 52 19 46 11 70 5 152 -36 46 -23 96 -29 106 -13 3 5 19 12 35
16 17 4 30 10 30 13 0 4 18 13 41 20 31 10 49 10 82 1 23 -7 46 -16 52 -21 13
-11 53 -10 77 3 12 6 39 29 61 51 51 51 95 68 173 68 51 0 68 4 84 20 11 11
20 24 20 30 0 5 6 18 14 27 8 10 26 32 41 50 29 36 77 63 111 63 36 0 82 46
89 88 4 20 12 48 18 61 16 33 75 88 114 106 49 23 63 51 63 122 0 73 16 106
84 177 35 37 46 56 46 81 0 17 -3 35 -7 39 -4 4 -13 28 -19 53 -13 51 -8 74
32 150 24 45 31 97 15 108 -5 3 -12 19 -16 35 -4 17 -10 30 -14 30 -9 0 -31
61 -31 88 0 12 4 30 9 40 4 9 13 32 19 51 14 42 -2 82 -56 137 -51 53 -62 78
-62 144 0 79 -11 103 -62 133 -24 14 -53 33 -64 44 -30 25 -64 89 -64 118 0
37 -45 83 -88 90 -60 10 -100 37 -140 93 -72 102 -63 96 -138 99 -100 5 -108
9 -165 59 -82 73 -116 80 -191 43 -30 -15 -68 -10 -120 16 -27 14 -56 25 -64
25 -8 0 -14 5 -14 10 0 19 -56 8 -120 -26z m205 -99 c178 -23 260 -43 323 -77
18 -10 38 -18 45 -18 7 0 23 -6 37 -14 14 -7 48 -25 75 -40 28 -15 63 -38 79
-51 16 -14 33 -25 38 -25 11 0 228 -217 228 -228 0 -5 11 -22 25 -38 14 -16
37 -53 52 -81 14 -29 30 -53 35 -53 4 0 8 -7 8 -17 0 -9 12 -41 26 -72 41 -88
43 -93 54 -151 6 -30 16 -80 23 -110 15 -71 15 -319 0 -390 -7 -30 -17 -77
-22 -105 -6 -27 -16 -63 -23 -80 -22 -56 -59 -140 -70 -160 -7 -11 -20 -36
-29 -55 -9 -19 -31 -52 -48 -74 -17 -21 -31 -42 -31 -46 0 -10 -210 -220 -220
-220 -4 0 -25 -14 -46 -31 -22 -17 -55 -39 -74 -48 -19 -9 -44 -22 -55 -29
-20 -11 -104 -48 -160 -70 -16 -7 -52 -17 -80 -23 -27 -5 -75 -15 -105 -22
-70 -15 -329 -15 -395 0 -27 7 -72 17 -100 22 -57 12 -88 23 -163 57 -29 13
-59 24 -67 24 -8 0 -15 4 -15 8 0 5 -24 21 -52 35 -29 15 -66 38 -82 52 -16
14 -33 25 -38 25 -11 0 -228 217 -228 228 0 5 -11 22 -25 38 -13 16 -36 51
-51 79 -15 27 -33 61 -40 75 -8 14 -14 30 -14 37 0 7 -8 27 -18 45 -34 62 -53
142 -77 323 -13 96 -13 123 0 220 19 138 34 224 45 250 4 11 20 49 34 85 15
36 32 74 38 85 7 11 18 34 26 50 29 58 112 172 160 218 17 16 53 52 69 69 34
35 64 60 132 107 41 28 78 51 84 51 5 0 21 8 35 19 15 10 38 22 52 26 14 4 45
16 70 27 25 11 54 24 65 28 31 13 251 50 350 58 6 1 60 -5 120 -13z"/>
<path d="M452 2059 c-44 -22 -74 -56 -92 -105 -8 -19 -11 -231 -10 -663 l1
-635 25 -43 c14 -25 43 -53 68 -68 l43 -25 808 0 c806 0 809 0 853 21 30 15
54 37 73 68 l29 46 -2 651 -3 650 -24 36 c-13 19 -40 46 -59 59 l-36 24 -815
3 c-814 2 -816 2 -859 -19z m713 -409 c16 -18 16 -22 1 -66 -9 -26 -16 -67
-16 -91 0 -49 14 -54 77 -28 46 19 69 19 77 -1 8 -22 -1 -51 -19 -58 -7 -2
-39 4 -69 15 -31 10 -61 19 -67 19 -14 0 -3 -111 16 -156 10 -24 10 -42 -1
-95 -8 -35 -14 -100 -14 -144 -1 -44 -5 -98 -9 -120 -7 -31 -9 -17 -10 68 0
59 -8 142 -17 184 -14 68 -14 79 0 114 17 41 22 149 8 149 -5 0 -35 -9 -67
-20 -65 -22 -85 -16 -85 27 0 33 24 39 79 19 71 -25 81 -22 81 22 0 20 -7 59
-15 86 -19 61 -19 61 1 80 20 21 27 20 49 -4z m-354 -45 c59 -21 79 -42 79
-82 0 -18 -2 -33 -4 -33 -2 0 -30 14 -61 30 -104 55 -195 30 -244 -65 -23 -43
-26 -62 -26 -145 0 -83 3 -101 25 -139 34 -61 68 -83 132 -88 44 -4 63 0 113
26 43 22 61 27 67 18 23 -36 -17 -82 -89 -103 -79 -23 -161 -14 -220 23 -117
72 -154 283 -78 439 55 112 184 162 306 119z m781 -7 c9 -7 56 -111 104 -230
48 -120 90 -218 93 -218 3 0 46 96 95 213 49 116 96 220 104 230 12 14 28 17
66 15 l51 -3 3 -293 2 -293 -37 3 -38 3 -5 249 -5 249 -102 -249 -101 -249
-35 -3 -35 -3 -99 250 -98 250 -5 -247 -5 -247 -37 -3 -38 -3 0 289 c0 159 3
292 7 295 11 12 98 8 115 -5z"/>
</g>
</svg>
